<svg xmlns="http://www.w3.org/2000/svg" xmlns:xlink="http://www.w3.org/1999/xlink" width="1080" zoomAndPan="magnify" viewBox="0 0 810 1012.49997" height="1350" preserveAspectRatio="xMidYMid meet" version="1.0"><defs><clipPath id="4ccae2d779"><path d="M 81.160156 180.382812 L 728.839844 180.382812 L 728.839844 831.8125 L 81.160156 831.8125 Z M 81.160156 180.382812 " clip-rule="nonzero"/></clipPath></defs><g clip-path="url(#4ccae2d779)"><path fill="#ffffff" d="M 634.40625 275.300781 C 573.53125 214.34375 492.578125 180.710938 406.320312 180.710938 C 228.585938 180.710938 83.925781 325.382812 83.863281 503.234375 C 83.863281 560.070312 98.695312 615.589844 126.914062 664.480469 L 81.160156 831.613281 L 252.105469 786.75 C 299.210938 812.464844 352.234375 825.980469 406.191406 826.015625 L 406.320312 826.015625 C 584.019531 826.015625 728.710938 681.3125 728.742188 503.492188 C 728.742188 417.300781 695.28125 336.292969 634.375 275.300781 Z M 406.320312 771.558594 L 406.222656 771.558594 C 358.152344 771.558594 310.953125 758.621094 269.800781 734.191406 L 260.019531 728.367188 L 158.574219 754.984375 L 185.632812 656.046875 L 179.261719 645.910156 C 152.425781 603.230469 138.269531 553.890625 138.300781 503.234375 C 138.367188 355.441406 258.605469 235.167969 406.414062 235.167969 C 478.003906 235.167969 545.28125 263.105469 595.894531 313.792969 C 646.503906 364.453125 674.335938 431.816406 674.304688 503.457031 C 674.238281 651.285156 554 771.558594 406.285156 771.558594 Z M 553.324219 570.789062 C 545.28125 566.765625 505.675781 547.261719 498.273438 544.589844 C 490.875 541.886719 485.535156 540.566406 480.160156 548.613281 C 474.789062 556.691406 459.34375 574.84375 454.644531 580.21875 C 449.949219 585.59375 445.25 586.269531 437.175781 582.214844 C 429.132812 578.191406 403.167969 569.664062 372.375 542.210938 C 348.4375 520.839844 332.253906 494.445312 327.554688 486.367188 C 322.859375 478.289062 327.074219 473.945312 331.09375 469.921875 C 334.699219 466.316406 339.136719 460.492188 343.191406 455.792969 C 347.214844 451.09375 348.566406 447.714844 351.234375 442.339844 C 353.9375 436.964844 352.585938 432.265625 350.558594 428.210938 C 348.53125 424.1875 332.445312 384.503906 325.722656 368.378906 C 319.191406 352.671875 312.53125 354.796875 307.605469 354.539062 C 302.910156 354.316406 297.535156 354.25 292.164062 354.25 C 286.789062 354.25 278.070312 356.246094 270.667969 364.324219 C 263.269531 372.402344 242.484375 391.90625 242.484375 431.558594 C 242.484375 471.210938 271.34375 509.542969 275.398438 514.949219 C 279.421875 520.324219 332.21875 601.71875 413.042969 636.640625 C 432.253906 644.941406 447.277344 649.898438 458.988281 653.632812 C 478.292969 659.78125 495.863281 658.910156 509.730469 656.820312 C 525.207031 654.5 557.378906 637.316406 564.105469 618.488281 C 570.828125 599.660156 570.828125 583.535156 568.800781 580.15625 C 566.773438 576.777344 561.402344 574.78125 553.359375 570.726562 Z M 553.324219 570.789062 " fill-opacity="1" fill-rule="evenodd"/></g></svg>