<svg xmlns="http://www.w3.org/2000/svg" xmlns:xlink="http://www.w3.org/1999/xlink" width="1080" zoomAndPan="magnify" viewBox="0 0 810 1012.49997" height="1350" preserveAspectRatio="xMidYMid meet" version="1.0"><defs><clipPath id="b2be646858"><path d="M 162.121094 342.054688 L 647.878906 342.054688 L 647.878906 669.644531 L 162.121094 669.644531 Z M 162.121094 342.054688 " clip-rule="nonzero"/></clipPath></defs><g clip-path="url(#b2be646858)"><path fill="#f2f2f2" d="M 636.246094 342.214844 L 173.753906 342.214844 C 172.988281 342.214844 172.234375 342.289062 171.484375 342.4375 C 170.734375 342.589844 170.007812 342.808594 169.304688 343.101562 C 168.597656 343.394531 167.925781 343.75 167.292969 344.175781 C 166.65625 344.601562 166.070312 345.082031 165.53125 345.621094 C 164.988281 346.160156 164.507812 346.746094 164.082031 347.382812 C 163.660156 348.015625 163.300781 348.6875 163.007812 349.390625 C 162.714844 350.097656 162.496094 350.824219 162.34375 351.570312 C 162.195312 352.320312 162.121094 353.074219 162.121094 353.839844 L 162.121094 657.878906 C 162.121094 658.640625 162.195312 659.398438 162.347656 660.144531 C 162.496094 660.890625 162.71875 661.617188 163.011719 662.324219 C 163.304688 663.027344 163.660156 663.695312 164.085938 664.332031 C 164.511719 664.964844 164.992188 665.550781 165.53125 666.089844 C 166.074219 666.628906 166.660156 667.109375 167.292969 667.535156 C 167.929688 667.957031 168.601562 668.316406 169.304688 668.609375 C 170.011719 668.898438 170.738281 669.121094 171.484375 669.269531 C 172.234375 669.417969 172.992188 669.492188 173.753906 669.492188 L 636.246094 669.492188 C 637.007812 669.492188 637.765625 669.417969 638.515625 669.269531 C 639.261719 669.121094 639.988281 668.898438 640.695312 668.609375 C 641.398438 668.316406 642.070312 667.957031 642.707031 667.535156 C 643.339844 667.109375 643.925781 666.628906 644.46875 666.089844 C 645.007812 665.550781 645.488281 664.964844 645.914062 664.332031 C 646.339844 663.695312 646.695312 663.027344 646.988281 662.324219 C 647.28125 661.617188 647.503906 660.890625 647.652344 660.144531 C 647.804688 659.398438 647.878906 658.640625 647.878906 657.878906 L 647.878906 353.839844 C 647.878906 353.074219 647.804688 352.320312 647.65625 351.570312 C 647.503906 350.824219 647.285156 350.097656 646.992188 349.390625 C 646.699219 348.6875 646.339844 348.015625 645.917969 347.382812 C 645.492188 346.746094 645.011719 346.160156 644.46875 345.621094 C 643.929688 345.082031 643.34375 344.601562 642.707031 344.175781 C 642.074219 343.75 641.402344 343.394531 640.695312 343.101562 C 639.992188 342.808594 639.265625 342.589844 638.515625 342.4375 C 637.765625 342.289062 637.011719 342.214844 636.246094 342.214844 Z M 626.53125 628.800781 L 500.332031 503.496094 L 626.554688 378.234375 Z M 183.445312 378.378906 L 303.800781 497.792969 L 183.445312 617.167969 Z M 198.730469 363.519531 L 611.125 363.519531 L 416.933594 556.234375 C 416.539062 556.625 416.125 556.992188 415.695312 557.34375 C 415.261719 557.691406 414.816406 558.019531 414.351562 558.324219 C 413.890625 558.628906 413.414062 558.914062 412.921875 559.171875 C 412.433594 559.429688 411.929688 559.667969 411.417969 559.875 C 410.902344 560.085938 410.382812 560.273438 409.851562 560.433594 C 409.320312 560.589844 408.78125 560.726562 408.238281 560.832031 C 407.691406 560.9375 407.144531 561.019531 406.59375 561.074219 C 406.039062 561.128906 405.484375 561.15625 404.929688 561.15625 C 404.375 561.15625 403.824219 561.128906 403.269531 561.074219 C 402.71875 561.019531 402.167969 560.9375 401.625 560.832031 C 401.082031 560.726562 400.542969 560.589844 400.011719 560.433594 C 399.480469 560.273438 398.957031 560.085938 398.445312 559.875 C 397.929688 559.667969 397.429688 559.429688 396.9375 559.171875 C 396.449219 558.914062 395.972656 558.628906 395.507812 558.324219 C 395.046875 558.019531 394.597656 557.691406 394.167969 557.34375 C 393.738281 556.992188 393.324219 556.625 392.929688 556.234375 Z M 183.445312 647.203125 L 318.898438 512.804688 L 377.894531 571.351562 C 378.785156 572.230469 379.714844 573.0625 380.683594 573.847656 C 381.652344 574.636719 382.660156 575.375 383.703125 576.0625 C 384.746094 576.75 385.820312 577.386719 386.921875 577.972656 C 388.027344 578.558594 389.15625 579.085938 390.3125 579.5625 C 391.46875 580.035156 392.648438 580.453125 393.84375 580.8125 C 395.039062 581.171875 396.25 581.472656 397.476562 581.714844 C 398.703125 581.957031 399.9375 582.136719 401.183594 582.257812 C 402.425781 582.378906 403.671875 582.441406 404.921875 582.441406 C 406.171875 582.441406 407.417969 582.378906 408.664062 582.257812 C 409.90625 582.136719 411.140625 581.957031 412.367188 581.714844 C 413.59375 581.472656 414.804688 581.171875 416.003906 580.8125 C 417.199219 580.453125 418.375 580.035156 419.53125 579.5625 C 420.6875 579.085938 421.820312 578.558594 422.921875 577.972656 C 424.027344 577.386719 425.101562 576.75 426.144531 576.0625 C 427.183594 575.375 428.191406 574.636719 429.164062 573.847656 C 430.132812 573.0625 431.0625 572.230469 431.953125 571.351562 L 485.199219 518.550781 L 615.84375 648.195312 L 183.445312 648.195312 Z M 183.445312 647.203125 " fill-opacity="1" fill-rule="nonzero"/></g></svg>